<svg width="108" height="17" viewBox="0 0 108 17" fill="none" xmlns="http://www.w3.org/2000/svg">
<path d="M83.313 15.9659L83.5008 16.1776L83.6877 15.9651L95.2004 2.87801L106.413 15.5655L106.589 15.7648L106.777 15.5768L107.477 14.8768L107.643 14.7106L107.487 14.5345L95.3874 0.834504L95.1996 0.621924L95.0123 0.834875L83.4992 13.9224L71.887 0.834084L71.6992 0.622405L71.5123 0.834875L60 13.9215L48.4877 0.834875L48.3 0.621499L48.1123 0.834875L36.5992 13.9224L24.987 0.834084L24.7992 0.622405L24.6123 0.834875L13.1004 13.921L1.98805 1.23527L1.82341 1.04732L1.63537 1.21186L0.835374 1.91186L0.646356 2.07725L0.81262 2.2655L12.9126 15.9655L13.1004 16.1781L13.2877 15.9651L24.8008 2.87759L36.413 15.9659L36.6008 16.1776L36.7877 15.9651L48.3 2.8785L59.8123 15.9651L60 16.1785L60.1877 15.9651L71.7008 2.87759L83.313 15.9659Z" fill="#FCBC30" stroke="#FCBC30" stroke-width="0.5"/>
</svg>
